<?xml version="1.0" encoding="UTF-8" standalone="no"?>
<!-- Created with Inkscape (http://www.inkscape.org/) -->

<svg
   xmlns:dc="http://purl.org/dc/elements/1.1/"
   xmlns:cc="http://creativecommons.org/ns#"
   xmlns:rdf="http://www.w3.org/1999/02/22-rdf-syntax-ns#"
   xmlns:svg="http://www.w3.org/2000/svg"
   xmlns="http://www.w3.org/2000/svg"
   xmlns:sodipodi="http://sodipodi.sourceforge.net/DTD/sodipodi-0.dtd"
   xmlns:inkscape="http://www.inkscape.org/namespaces/inkscape"
   width="41mm"
   height="41mm"
   viewBox="0 0 145.27561 145.27561"
   id="svg2"
   version="1.1"
   inkscape:version="0.91 r13725"
   sodipodi:docname="break.svg">
  <defs
     id="defs4">
    <rect
       height="139.2"
       width="139"
       y="343.79999"
       x="517"
       id="c" />
  </defs>
  <sodipodi:namedview
     id="base"
     pagecolor="#ffffff"
     bordercolor="#666666"
     borderopacity="1.0"
     inkscape:pageopacity="0.0"
     inkscape:pageshadow="2"
     inkscape:zoom="0.98994949"
     inkscape:cx="280.06814"
     inkscape:cy="-82.804862"
     inkscape:document-units="px"
     inkscape:current-layer="layer1"
     showgrid="false"
     inkscape:window-width="1366"
     inkscape:window-height="705"
     inkscape:window-x="-8"
     inkscape:window-y="-8"
     inkscape:window-maximized="1" />
  <metadata
     id="metadata7">
    <rdf:RDF>
      <cc:Work
         rdf:about="">
        <dc:format>image/svg+xml</dc:format>
        <dc:type
           rdf:resource="http://purl.org/dc/dcmitype/StillImage" />
        <dc:title></dc:title>
      </cc:Work>
    </rdf:RDF>
  </metadata>
  <g
     inkscape:label="Ebene 1"
     inkscape:groupmode="layer"
     id="layer1"
     transform="translate(0,-907.0866)">
    <g
       id="g4168"
       transform="translate(-512.85886,566.43122)"
       style="fill:#ffffff">
      <path
         id="path4157"
         clip-path="url(#d)"
         d="m 586.6,482.8 c -38.4,0 -69.6,-31.2 -69.6,-69.6 0,-38.4 31.2,-69.6 69.6,-69.6 38.4,0 69.6,31.2 69.6,69.6 0,38.4 -31.2,69.6 -69.6,69.6 z m 0,-130.9 c -33.7,0 -61.2,27.5 -61.2,61.2 0,33.8 27.5,61.2 61.2,61.2 33.7,0 61.2,-27.5 61.2,-61.2 0.1,-33.7 -27.4,-61.2 -61.2,-61.2 z"
         inkscape:connector-curvature="0"
         style="fill:#ffffff" />
      <rect
         id="rect4159"
         height="53.799999"
         width="6.4000001"
         y="386.79999"
         x="595.59998"
         style="fill:#ffffff" />
      <rect
         id="rect4161"
         height="53.799999"
         width="6.4000001"
         y="386.79999"
         x="571.20001"
         style="fill:#ffffff" />
    </g>
  </g>
</svg>
