<?xml version="1.0" encoding="utf-8"?>
<!-- Generator: Adobe Illustrator 19.2.1, SVG Export Plug-In . SVG Version: 6.00 Build 0)  -->
<svg version="1.1" xmlns="http://www.w3.org/2000/svg" xmlns:xlink="http://www.w3.org/1999/xlink" x="0px" y="0px"
	 viewBox="0 0 341.4 127.8" style="enable-background:new 0 0 341.4 127.8;" xml:space="preserve">
<style type="text/css">
	.st0{fill:url(#SVGID_1_);}
	.st1{fill:url(#SVGID_2_);}
	.st2{fill:none;stroke:#008ABF;stroke-width:0.4;stroke-linecap:round;stroke-miterlimit:3.8637;}
	.st3{fill-rule:evenodd;clip-rule:evenodd;}
	.st4{fill-rule:evenodd;clip-rule:evenodd;fill:#FFFFFF;}
</style>
<g id="Ebene_1">
	<g>
		
			<radialGradient id="SVGID_1_" cx="86.5707" cy="79.3458" r="56.4202" gradientTransform="matrix(1.0234 0 0 1.0172 -3.9509 -6.5382)" gradientUnits="userSpaceOnUse">
			<stop  offset="0" style="stop-color:#FFFFFF"/>
			<stop  offset="8.427000e-02" style="stop-color:#ECF7FE"/>
			<stop  offset="0.5169" style="stop-color:#6FB2DD"/>
			<stop  offset="0.7865" style="stop-color:#007FB8"/>
			<stop  offset="0.9326" style="stop-color:#00538C"/>
			<stop  offset="1" style="stop-color:#6FB2DD"/>
		</radialGradient>
		<path class="st0" d="M58,88c0-21.8,17.8-39.4,39.7-39.4c21.9,0,39.7,17.7,39.7,39.4c0,21.8-17.8,39.4-39.7,39.4
			C75.8,127.5,58,109.8,58,88L58,88z"/>
		<radialGradient id="SVGID_2_" cx="85.5714" cy="72.4553" r="68.2056" gradientUnits="userSpaceOnUse">
			<stop  offset="5.618000e-03" style="stop-color:#2EA860"/>
			<stop  offset="0.8595" style="stop-color:#002F1B"/>
			<stop  offset="1" style="stop-color:#445947"/>
		</radialGradient>
		<path class="st1" d="M88.4,60.8l0.4-0.3l0.5-0.1l0.2-0.1l0.3,0.1l0.2,0l0.5,0.3l-0.2,0.1l-0.7,0l-0.8,0.5l-0.5,0.1l-0.1-0.2
			L88.4,60.8z M89.9,54.2l-0.6,0.2l0,0h0l-0.1,0.3c0.5,0,1,0.6,1.2,1l0.4-0.1c0.2-0.3,0.6-0.5,0.9-0.7l0.1-0.3c0-0.1,0-0.1-0.1-0.2
			h-0.2c0,0-0.1,0-0.1,0.1l-0.4-0.1h0L89.9,54.2z M90.1,59.6l-0.4,0.1l-0.6,0.2l0.2,0l0.4-0.1l0.3,0.2l0.3,0.2l0.2-0.3l0.2-0.3
			l-0.3-0.2L90.1,59.6z M90,59.2l0.3,0.3l0.4-0.3l-0.3-0.4c-0.2,0.1-0.7,0.3-0.9,0.1l0.2-0.3L89,58.8c-0.1,0.3-0.6,0.5-0.8,0.5
			c0.2,0.2,0.5,0.4,0.8,0.4C89.3,59.6,89.7,59.4,90,59.2z M92.5,61.6c0.1-0.2,0.1-0.5,0-0.7l-0.3-0.3l0.2-0.7l0.6-0.2l0.2-0.9
			c-0.1,0-0.2,0-0.3,0.1l0,0.1c0,0-0.1,0-0.1,0c-0.1,0-0.1,0.1-0.2,0.1c0,0.2-0.2,0.5-0.3,0.6l-0.5,0.1c-0.7,0.5-0.1,1.5,0.2,2
			L92.5,61.6z M92.9,58.7l0.2-0.1l-0.2-0.1c-0.1,0-0.1-0.1-0.2-0.1h0c0,0,0-0.1-0.1-0.1c-0.1,0-0.1,0.1-0.2,0.1l0,0h-0.1h0l-0.1-0.2
			l-0.3,0.2h0l-0.1,0l-0.2,0.1l-0.2,0.3l0.5,0.1h0c0,0-0.1,0-0.1,0c0.2-0.3,0.4-0.4,0.7-0.6l0.1,0l0.2,0l-0.2,0.1l-0.1,0.3l-0.5,0.1
			c0.3,0.1,0.6,0.1,0.9,0.1c0,0,0.1,0,0.1-0.1L92.9,58.7z M104.1,63.5c-0.1-0.1-0.4,0-0.5,0.1l-0.3-1.3h0l-0.1-0.2
			c-0.4,0.2-1-0.1-1.4-0.1l0,0.2l-0.3,0.2l-0.1,0.1c0,0-0.1,0-0.1-0.1h0c-1-0.6-1.1-0.2-1.7,0h0c-0.2,0.1-0.5,0.1-0.8,0.2l-0.1,0.3
			c-0.8,0.7-1.1,0-1.7,0.3l-0.2,0.3l0.1,0.2l-0.6,0.2l0.1,0.2l-0.3,0.5l0.3,0.1c0.1,0.2,0.3,0.4,0.4,0.5c0.2,0.3,0.1,0.7,0,1.1h0
			c-0.4,0.9-1.3,1.8-1.3,2.4l0.5,0.1L95.6,69l-0.7,0.1l-0.2,0.9l0.5,0.3c-0.6,0.9-1.1,0.8-1.6,1.4h0c-0.4,0.5-0.7,1.3-1.2,3.1
			c-0.2,0.8-0.2,1.3-0.1,1.7h0c0.1,0.4,0.2,0.8,0.3,1.6l0.5,0.3l0.4-0.1c0.1-0.2,0.6-1,1.2-1.8h0c0.7-0.9,1.4-1.9,1.6-2.1
			c0.5-0.1,0.9,0,1.4,0.1c0.5-0.2,0.9-1.1,1.6-1.4l0.3,0.2c0.6,0.1,1.7-0.8,2.2-1.1c-0.2-0.1-0.4-0.3-0.4-0.6c0-0.1-0.1-0.2-0.1-0.2
			l0.3-0.5l0.1,0.4l0.3,0.2l0.3-0.5c-0.1-0.6,0.1-1.3,0.3-1.9l0.5-0.4l0.3-1.2l-0.2-0.6l0.6-0.4c-0.2-0.2-0.3-0.4-0.3-0.7h0
			c-0.1-0.8,0.6-1.6,1.1-2.2L104.1,63.5z M99.5,77.7l0.5-0.1l0.6-0.4l0.4-0.6h0l0.1-0.1l-0.4-0.8l-0.2,0.1l-0.7,0l-0.3-0.2l-0.5,0
			l0.1,0.6l-0.1,0.3l0,0.1h0l0,0.8L99.5,77.7z M98.2,88.9l1.1-0.3l0.5-0.8l0-0.7h0v0l0.5-0.6l-0.6-0.7l-0.5-0.1l-0.5,0.4L98,86.7
			l0.1,0.5h0l0.1,0.4l-0.7,0.9L98.2,88.9z M89.8,57.8l0-0.2c-0.1-0.1-0.3-0.1-0.4-0.1c0.2,0,0.5-0.1,0.7-0.2c-0.1,0-0.3-0.1-0.3-0.2
			c0.1-0.2,0.4-0.5,0.7-0.6c-0.3,0-0.7-0.3-0.8-0.5c-0.2-0.1-0.5-0.1-0.7,0l-0.2,0.3l0.1-0.3L88.4,56c-0.2,0.1-0.3,0.4-0.3,0.6
			l-0.4,0.3l0.2-0.7l-0.2,0c-0.4,0.3-0.8,0.6-1.4,0.6c0.3,0.5-0.2,0.6,0.2,1.3c-0.1,0.1-0.1,0.2-0.2,0.3h0c-0.1,0.2-0.2,0.3-0.2,0.5
			c0.2,0.4,0.7,0.3,1,0.2c0.1-0.3,0.3-0.5,0.5-0.8h0c0,0,0,0,0,0C88.4,58.3,89.1,58,89.8,57.8z M101.3,48.8l-1,0.1l1.2,0.3l1.6,0.6
			l1.7,0.4l1.4,0.1l1.5,0.5l1.1,0.6l1.7,1l0,0.2l1.7,1.1l1.5,0.5l0.4,0.3h0l0.7,0.6l-0.3,0.6l1,1l0.9,1.5l-0.8-0.2l-0.6-0.5
			l-0.5,0.1l0,0.7l0.1,0.1h0l0.8,1l0.9,1.5l1.3,1.3h0l0,0l0.5,1l0.6-0.2l0.6,0.5l-0.4,0.1l0.1,0.9l-0.3-0.1l-0.3-0.1l1.5,1.3
			l0.3,0.2l0.5,0.1l0,0h0l1,1.2l-0.5-0.6l-0.3-0.2l-0.3-0.1l-0.3-0.3L120,66h0l-0.5-0.3l-2.1-1l0.1,0.2l0.3,0.4l0.3,0.2l0.6,0.4h0
			l1.7,1.2l-0.1,0.3l-1.7,0.3l-0.2,0.3l0.9,0.9l-0.9,1.6l-0.2,1.1h0l-0.1,0.6l-0.3-0.6l-0.1-0.2l-0.9,0l0.1,0.2h0l0.4,0.8l0.3,0.3
			l0.1,0.6l-0.4,0.8l0.2,0.8l-0.8,0.4l0.7,0.7l-1-0.2l-0.2,0l-0.4-0.6l-1.1-0.8l0.9,0l0.9-0.1l0.4-0.8l-0.9-0.9l-0.5-0.1l-0.8-0.4
			l-0.9,0l-0.6,0.2l-0.2,0l-0.4-0.4h0l-0.3-0.3l-0.9,0l-0.3,0.3h0l-0.3,0.3l-0.7,0.6l-0.2,0.9l-0.6,1l-0.4,1.2l-0.2,0.9l0,0.2h0
			l-0.2,1l-0.5,0.8l-0.9,0.9l-0.2,0.3l-0.8,1.1l0,0.8l0,0h0l0,0.5l0.1,1.1l0.8,0.5l0.8-0.5l0.8-0.4l0.5,1l0.5,1l0.4,1.4l0.7,0
			l0.2-0.7l0.7-0.6l0.1-0.3l-0.1-0.6l0.1-1.1l0.2-0.3l0.3-0.5l-0.4-0.6l0,0h0l-0.5-1.9l0.4-1l0.4-1l0.1-0.9h0l0-0.3l0.9,0l0,0.3h0
			l0.1,0.8l-0.6,1l-0.1,1.1l0,0.2l0.7,1.4l1,0.3l0.9-0.1l0.6-0.4l0.1,0.3l-0.4,0.1l-0.5,0.1l-0.2,0.2l0.1,0h-0.1l-0.2,0.1l-0.4,0.3
			l0.1,0.6l0.5,0.3l0-0.2l0.1,0.6l0.2,0.6l-0.4,0.3l-0.6-0.7l-0.3,0.5l-0.1,0.5l0.2,0.8l0.2,0.8l-0.5,0.4l-0.1,0.3l-0.4,0.3
			l-0.3-0.4l-1.1,0.8h0l-0.6,0.4l-0.9-0.4H110l-0.6,0.5l-0.4-0.5h0l-0.1-0.1l0-0.7l0-0.9l-0.1-1.1l-0.3-0.1l-0.7,0.9l0.1,1.3
			l0.3,0.8h0l0.1,0.4l-0.8,0.4l-0.9,0l-0.7,0.9l-0.4,1l-0.7,0.6l-0.7,0.6l-0.8,0.5l-0.9,0.1l-0.3,0.3h0l-0.2,0.3l-1-0.2l-0.7,0.6
			l0.6,0.5l0.3,0.1l0.8,1.3l-0.1,1.2l-0.3,1.1h0l0,0.1l-0.9,0.1l-0.9-0.2h-0.1l-0.3-0.1l-1.2-0.1l-1-0.2l-0.5,0.4h0L96.2,97l0.1,0.9
			l-0.2,1l-0.6,1.1l0.2,0.8l0,0.9l0.8,0.2l0.5,0.5h0l0.3,0.4l0.7,0l0.5-0.1l1.4,0l0.4-0.3h0l0.4-0.2l0.7-0.6l0.4-1l0.7-0.9l1-0.7
			l0.7-0.7l0.1-0.5l0.8-0.4l1.3-0.1l0.8-0.4l0.6-0.4h0l0.2-0.2l0.2,0.2h0l0.7,0.4l0.4,0.6l0.4,0.6l1.1,0.6l0.8,0.5l0.8,0.2l0.3,0.8
			l-0.2,1l0.7-0.9l-0.2-0.8l0.8-0.4l0.4-0.3l-1-0.4l-0.5-0.3l0.1-0.3l-0.3-0.3l-0.5,0.1l-0.8-0.5l-0.6-0.7l-0.1-0.1h0l-0.4-0.7
			l-0.1-0.4l0.7-0.6l0.3,0.2l0.2,0.4l0.6,0.5l0.8,0.5h0l0.1,0.1l0.5,0.3l0.8,0.5l0.6,0.5l0.1,0.9l0.6,0.5l0.7,0.9l0.1,0.4l0.3,1
			l0.7,0l-0.1-0.6l0.2-0.9l0.5-0.6l-0.7-0.2l-0.1-0.4l-0.2-0.8l0.6-0.4l0.8-0.4l0.7,0L120,97l0.1-0.3h0l0.1-0.2l-0.6-0.7l0.2-1
			l-0.1-1.3l0.5-1.3l0.1-0.3l0.1-0.2l0.4-0.1l0.9-0.1l-0.2,0.5l-0.1,0.3l0.5,0.3l0.4,0.3l0.5-0.9h0l0.1-0.2l0-0.2l-0.4-0.6l0.5-0.8
			l0.5-0.8l0.3,0.2l0,0.6l-0.2,0.9l0.4,0.5l1,0.4l0.7,0l0,0.1h0l0.3,0.6l0.1,0.4l-0.4,0.8l-0.7,0.6l-0.4,0.1l-0.9,0l-0.8,0.2
			l-0.8,0.5l-0.8,1.1l-0.8,0.5l0,0.1h0l-0.5,0.9l-0.8,0.2l-0.2,0.9l0.2,0.8l0.5,0.3l0.5,0.8l0.7,0l0.9-0.7l1-0.3l0.8-0.2l0.7-0.7
			l0.2,0l0.1,0.2l0.1,0.9l-0.1,0.5l0,0.7l0,0.9l-0.2,0.6h0l-0.2,0.4c-0.3,0.1-0.5,0.4-0.7,0.6l-0.7-0.2c-1,1.8-3,1.1-3.6,1.7
			c-1.2-0.6-4.1-0.2-3.6,1.9l-0.5,0.4L114,107l-0.6,0.2c-0.5,0-1.1-0.3-1.2-0.8c-0.7-0.2-2,0-2.4-0.2l-0.3-0.4l-0.5,0.1
			c0-0.6,0.5-0.9,0.5-1.5l-0.2-0.6l0.2-0.7l-0.4,0.1l-0.5-0.3c-0.3,0.1-0.7,0.2-1,0.3c-0.4-0.2-1.5,0-2,0.1c-1-0.4-4.5,0.6-5.4,1.3
			l-0.3-0.1l-0.1-0.2c-0.7,0-1.3-0.1-1.9-0.3l-0.3-0.4c-0.4,0.1-1,1.1-1.2,1.5c-0.9-0.1-1.8,0.4-2.4,1.1c0,0.4-0.3,0.8-0.5,1.3h0
			c0,0.1,0,0.2,0,0.2c-0.3,0.6-1.5,0.7-2.2,0.9l-0.3-0.1c-0.5,0.1-4.1,2.8-4.7,3.7h0c-0.1,0.1-0.1,0.2-0.1,0.2
			c0.2,0.2,0.4,0.4,0.6,0.7c-0.2,0.3-0.4,0.6-0.4,1l0.3,0.4c-0.1,0.3-0.8,0.9-0.8,1.1c-0.2,0.2-0.5,0.3-0.8,0.4
			c0,0.3,0.2,0.6,0.3,0.8c-0.4,1,0.6,1.6,1.3,1.9l0.1,0.4c0.4,0.2,0.5,0.7,0.9,0.9c-0.2,0.2,0.2,0.4,0.1,0.6l0.3,0.4
			c0.8,0,2.3,2.3,4.5,2.3c1.4,0,2.6,0.3,4,0.4c2.2,0.1,3.7-0.8,5.9-0.2l0.3,0.4c0.5,0.2,1.9,0,2.4-0.2l0.3,0.2l0.4-0.1
			c0.6,0.5-1.7,1.8-1.1,1.9l0.3,0.1l0.1,0.2l1.2,0.3l-0.2,0.3l0.4-0.1c0,0,0,0.1,0,0.1c9.9-2.2,18.5-8,24.1-16
			c0.1-0.3,0.2-0.5,0.3-0.6c0.2-0.3,0.3-0.7,0.5-1c0.2-0.2,0.1-0.4,0.3-0.6c0.1-0.1,0.1-0.2,0.1-0.3l0.1-0.2l0.1-0.2l-0.1,0.1
			l-0.2,0.2l-0.3,0.5l-0.5,0.6c-0.4,0.4-0.6,0.8-1,1.2l-0.7,0.9c-0.2,0.3-0.3,0-0.4-0.1c0.7-0.8-1.1-0.4-1.2-0.5
			c-0.6-0.5,0-0.7-0.9-0.9l-0.1-0.2c0.3-0.7-0.1-1.3-0.7-1.4c-0.1-0.2-0.2-0.4-0.3-0.5l0,0c-0.1-0.1-0.1-0.3-0.1-0.5l-0.2,0
			c-0.3-0.5-0.6-1.2-1.1-1.5l-0.2-0.8c0.3,0.2,0.4,0.5,0.7,0.7l0.2-0.1l0.3-1.2l0.3,1l0.7,0.7l0.4,0.6l0.5,0.1l0.4,0.5l-0.1,0.5h0
			l0,0l0.3,0.2l0,0.2l0.5,0.1l0.4,0.5l0,0.2l0.4,0.5l0.1,0.6l0,0.7l0-0.2l0.9-0.7l0.5-0.8l0.2-0.3l0.7-1h0l0.1-0.1l0.6-1.1l0.6-0.9
			l0.4-1.2l0.2-0.3l0.6-1.1l0,0h0l0.3-0.8l0.3-1.2l0.1-0.3l0.3-1.2l0.3-1.2l-0.1-0.2l-0.4,0.3l-0.3-0.1l-0.2-0.8l-0.3,1.2l-0.3,1.2
			l-0.5,0.8l-0.3-0.1l-0.1-0.2l-0.2,0.3l-0.3-0.4l-0.2,0l-0.4-0.5l-0.1-0.2l0-0.3l0.6-0.7l0.3,0l0.5,0.3l0.6-0.4l0.5-0.8l0.4-0.4h0
			l0,0l0.4-0.1l0.3-0.6l0.5-0.6l0-0.2l0.4-1.2l0.1-0.5l0.4-1l0.1,0.2l0-0.2l0-0.2l0.1,0.2l0.1,0.2l0.2-0.3l-0.1-0.4l0-0.2l0.1-0.5
			l0.1,0.1c0.1-1.1,0.2-2.2,0.2-3.3C137.3,67.8,121.3,50.6,101.3,48.8z M78.2,122.3c0-0.1,0-0.2,0-0.2c0-0.2-0.4-0.7-0.5-0.8l0-0.2
			c-1.6-1,0.2-1.7,0.5-2.9c-0.6-1-3.5-3.1-3.5-3.2c-1.6-0.7-3.1-1.6-4.5-2.8h0c-0.4-0.3-0.8-0.7-1.2-1.1c-0.1,0.1-0.4,0.2-0.6,0.2
			l0.1-0.5l-0.3-0.2c-0.3-0.2-0.7-0.4-0.9-0.6c-0.1-0.1-0.1-0.4,0.1-0.3l0.1-0.3c-0.2-0.3-0.6-1-1.1-1.9h0c-0.8-1.5-1.9-3.4-2.7-3.3
			c-0.2-0.2-0.3-0.5-0.4-0.8L63,103c0-0.2,0-0.3,0-0.4v0c0,0,0,0,0,0h0c-0.1-0.2-0.2-0.3-0.3-0.5c-0.4-0.7-1.8-3.5-2.7-5.2h0
			c-0.4-0.7-0.7-1.2-0.7-1.3l0,0.4c-0.1-0.7-0.4-2.5-0.6-3.8h0c-0.1-0.6-0.2-1.1-0.2-1.3c0.7-1,0.5-2.3,0.3-3.5h0
			c-0.1-0.3-0.1-0.5-0.1-0.8c0.1-0.2,0.6-1,0.8-1.1c0-0.4,0.4-0.6,0.4-1l-0.3-0.4c0.2-0.6,0-1.2-0.1-1.8c-0.2,0.2-0.4,0.1-0.5,0.1
			c0.1-0.2,0.1-0.4,0.2-0.7h0c0.2-1,0.2-2.3,0.6-3.2c0.2-0.7,0.5-1.1,0.8-1.6h0c0.1-0.2,0.3-0.4,0.4-0.7c0.1-0.1,0.1-0.4,0.1-0.5
			l0.5-0.4c0.2-0.1,0.3,0.3,0.4,0.5c-0.1,0.3-0.1,0.7-0.1,1.2h0c0,0.7,0,1.5,0.1,2l0.2-0.1c0.1,0.1,0.2,1.8,0.2,2
			c0.2,0.2,0.4,0.6,0.5,0.9c0,0,0,0,0,0l0,0c-0.1,1-0.9,2.5-1.2,3.6l0.3,0.4c1-1,0.8-2.9,1.8-3.9l0.4-0.1c0.6,0.5,1.5,0.3,2.1,0.9
			c0.3,0,0.7-0.3,0.8-0.5c0-0.1,0-0.3,0.1-0.4h0c0.1-0.3,0.3-0.6,0.4-1c0.2-0.2,0.4-0.4,0.6-0.5c-0.3,0.3-0.4,0.8-0.5,1.2
			c-0.1,0.1-0.3,0.2-0.4,0.2c0,0,0.7-0.3,0.8-0.4c0-0.3,0.2-0.7,0.4-1l-0.1,0.5l0.3,0.3c1.1-0.7,0.6-0.6,1.4,0.1l0.1-0.3l0.1,0.4
			c0.2,0.2,0.6,0.5,0.8,0.2c0.2-0.2,0-0.1-0.1-0.1c0.8-1,0.3-0.5,1.4-0.7c0.3,0.1,1.4,0.6,1.4,0.9c0.1,0,0.2,0.1,0.2,0.2h1.2l0-0.6
			c0.3-0.3,0.7-0.9,0.6-1.3l0.7,0.2l0.2-0.7l-0.4-0.6L73.5,78c0.6-0.3,1.4-0.4,2.1-0.4l0.1,0.2l1.1,0.1c0.7,0.7,1.2,1.6,2.2,2
			c0.4-0.1,0.8-0.1,1.3-0.1l0.6,0.5c0.4-0.3,0.9-0.7,1.2-1.2l-0.2-0.6l0.3-0.6c-0.1-0.4-0.2-0.8-0.3-1.2h0c0,0,0-0.1-0.1-0.1
			c0-1.2,1.3-2.5,1.4-3.8l0.5-0.4c-0.7-0.1-1.3,0.6-2.1,0.4c-0.1-0.2-0.1-0.5,0-0.8h0c0-0.2,0.1-0.4,0.2-0.6l1.5-1.3
			c-0.2-0.4,0.1-1.1,0.3-1.4l-0.5-0.8l0-0.7c-1.2,0.1-2.2,1.5-3.5,1.9l-0.2,0.7c-0.7,0.9-1.9,0.8-2.8,0.8c-0.3,0.4-0.8,1.1-1.3,1.4
			h0c-0.1,0.1-0.3,0.1-0.4,0.1l0-0.1h0l-0.2-0.4c0.8-0.7,0.8-1.5,1.9-2.1l0.3-0.6L76.5,68c0.2-0.7,0.4-1.3,0.5-2h0
			c0.1-0.5,0.1-0.9,0.1-1.5c0.5-0.2,0.9-0.6,1.3-1l0.1-0.3c0.6-0.4,3-0.7,3.7-0.4l0.2-0.1l0.5,0.3l0,0.2l0.6,0.3
			c0.6-0.2,1.1-0.4,1.7-0.5l0,0.7l0.7,0.2c0.5-0.2,0.9-0.4,1.4-0.6l0.3-0.5l-0.1-0.4c-0.4,0.1-0.9,0.2-1.3,0.2l-0.5-0.3
			c0.2-0.1,0.4-0.1,0.5-0.2h0c0,0,0,0,0,0c0.3-0.1,0.5-0.3,0.7-0.6l-0.3-0.2c0.7-0.5,1.5-0.9,2.1-1.5c-0.5-0.1-1,0-1.5,0.2l-0.5,0.6
			c-0.3,0.2-1.2,0.1-1.6,0l0.8-0.4l0.3,0.1l0.6-0.4c-0.1-0.2-0.4-0.3-0.6-0.3l-0.6,0.2l-0.3-0.3c0-0.5,0.4-0.9,0.5-1.3h0
			c0-0.1,0-0.1,0-0.2l-0.5-0.3l0.5-0.4c0.1-0.2,0.1-0.5,0-0.7l0.4-0.3l0.5-0.1c0.2-0.5,0.8-1,1.3-1.1l0.1-0.3l0.4-0.3l-0.2-0.2h0
			l-0.1-0.1l0.8-0.2l0-0.2l0.4-0.3c-0.3-0.7,0.3-0.9,0.3-1.2c1.9-0.5,3.4-1.4,5.3-1.5l0.1-0.3c0.2-0.1,1-0.7,0.9-1
			c-1,0.1-1.2-0.3-1.2-0.3l0.2-0.3L94.6,49L94,49.3c-0.1-0.2-0.3-0.3-0.5-0.3l0-0.2C73.8,50.9,58,67.7,58,88
			C58,102.6,66.2,115.4,78.2,122.3z M88.9,62.1l-0.5-0.1c0.1-0.4-0.5-0.2-0.5,0.1c0,0.1,0,0.1,0,0.2h0c0.1,0.3,0.2,0.5,0.3,0.8
			l0.3,0.2c0,0.2,0.1,0.4,0.2,0.6c-0.2,0.3-0.5,0.5-0.9,0.7l0.3,0.4l-0.1,0.5c-0.4,0-0.7,0.4-1,0.6h0c0,0,0,0-0.1,0l-0.5,0.1
			l-0.3,0.5l-1-0.2l0.2-0.3h0l0.1-0.1l-0.5-0.1L84.4,66h0l-0.2,0.1c0.8,0.4,0.7,1.6,0.2,2.2c0.1,0.7,0.2,1.4,0.2,2
			c0.3-0.3,0.4-0.8,0.4-1.2l0.3,0.1l0.1,0.4l0.6,0.3c0.4-0.3,0.4-1,0.3-1.4c0.3-0.1,0.7-0.8,0.9-1l0.3,0.2c-0.1,0.5-0.3,1.1-0.2,1.6
			c0.4-0.3,1-0.4,1.4-0.8c-0.1-0.7,0.3-1.5,0.1-2.1c0.4,0,0.7-0.3,0.9-0.6h0c0.1-0.1,0.1-0.2,0.1-0.3c-0.1-0.5,0.2-1,0-1.4
			c0.4-0.7,0.8-1,1.2-1.5c0.1-0.1,0-0.4,0-0.6h0c0-0.2,0-0.3,0-0.4C90.9,61,89.4,61.6,88.9,62.1z M82.6,64.7c0,0.2-0.1,0.5-0.3,0.6
			l1,0.2L83,66h0l0,0l0.1,0.4c0.2-0.1,0.3-0.3,0.4-0.4h0c0.5-0.6,0.6-1.3,1-2C83.9,64.3,83.2,64.6,82.6,64.7z M93.6,57.5l-0.4,0.1
			L93,57.9c0.4,0,1.2-0.2,1.4-0.6C94.3,56.7,93.8,57.2,93.6,57.5z M101,90.6l1,0.1l1.1-0.1l0.5-0.4l0.5-0.6l-0.1-0.9l-0.7-0.9
			l-0.3-0.6h0l-0.2-0.4l-0.3-1.1l-0.4-0.6l0.6-0.9l-1-0.4l0.4-0.8l-0.5-0.1l-0.2,0l-0.5,0.8l-0.2,1l0.1,1.1l0.3,1l0.4,0.7h0l0.1,0.1
			l-0.5,0.4l-0.4,1l0,0.7l-0.1,0.3l-0.9,0.7l0.3,0.2L101,90.6z M93.3,55.1c-0.2,0-0.4,0.1-0.6,0.2l0.5,0.3l0,0.2
			c0.1,0.2,0.4,0.3,0.6,0.3l0.1-0.5C93.7,55.6,93.3,55.4,93.3,55.1z M108.2,64.6l-0.3-0.1l-0.5,0.1l0,0.7l0.9,0L108.2,64.6z
			 M107.3,66L107.3,66l0.4,0.5l0.5,0.8l0.5,0.3l0-0.7l0.1-0.5l-0.2-0.4h0l-0.2-0.4l-0.7-0.2l-0.6,0.2L107.3,66z M118.9,102.5
			L118.9,102.5L118.9,102.5h0.1l0.7-0.2l-0.5-0.3l-0.4,0.1l-0.8,0.2L118.9,102.5L118.9,102.5z M111.7,58.9l-0.1,0.3l0.6,0.3l0.7,0.2
			l0.3-0.5l-0.6-0.3L111.7,58.9z M110.8,53.7l-0.2,0.3l0.4,0.5l0.3,0.1h0l0,0l0.3,0.1l0-0.1h0l0.1-0.3l-0.5-0.1L110.8,53.7z M115,66
			L115,66l0.2,0.4l0.1,0.2l0.1,0.4l0.5,0.8l0.3,0.2l0.8,0.4l0.6-0.2l-0.5-0.3l-0.7-0.7l-0.7-0.9l-0.1-0.3h0l-0.2-0.7l-0.2-0.8
			l-0.1-0.4l-0.4-0.8l-0.4,0.3l0,0.7l0.3,1L115,66z M111.8,102.7l0.2-0.1h0l0.5-0.4l-0.4-0.6l-0.6,0.2l-0.3-0.1l-0.3,0.6l0.6,0.3h0
			L111.8,102.7z M113.5,58.4l-0.6,0.2l-0.2,0l0.3,0.2l0.8,0.2L113.5,58.4z M81,80.7l-0.1-0.2c-0.2,0-1.1,0.5-1.9,0.9h1l0,0
			C80.4,81.3,80.8,81.1,81,80.7z M72.9,82l0.4,0.5l0.5-0.1c0.4,0.4,1,0.4,1.5,0.6c0-0.4-0.2-0.9-0.5-1.2l0-0.3h-1.2
			c0.1,0.1,0.3,0.3,0.3,0.5C73.8,81.8,73.2,81.9,72.9,82z M94.1,59.6c0.7,0.1,1.8-0.5,2.2-1.1C95.9,58.6,93.4,58.2,94.1,59.6z
			 M108.5,97.7l-0.4,0.3l-0.1,0.3l0.4,0.5L108.5,97.7z M96.5,59.7L96,59.9l-0.3-0.3L95.5,60c-0.3,0.1-0.7,0.1-1.1-0.1l-0.2,0.3
			l-0.5,0.1l0.4-0.3c-0.3,0.1-0.7,0.1-1.1-0.1c-0.1,0.2-0.1,0.5,0,0.7l0.3,0.2l-0.1,0.3l0.3,0.2c0.3-0.1,0.7-0.2,1-0.3
			c0.8,0.4,3.4-0.4,4.4,0.1l0.2-0.1c0.4-0.8-0.6-1.2-0.8-1.8C97.7,59.2,96.4,58.4,96.5,59.7z M79.8,82.2l0.2-0.8l-1,0
			c-0.6,0.3-1.1,0.6-1.3,0.7c-0.1,1.1,0.8,1,1,1.7l-0.2,0.7l0.5,0c0.1,0.3,0.1,0.6,0.1,0.9c0.3,0,0.7-0.3,0.8-0.5
			c0-0.2,0-0.6-0.2-0.8l0.5-0.4l-0.1-0.4l0.2-0.3C80.4,82.7,80.1,82.3,79.8,82.2z M108,101.3l0.6-0.4l0.1-1.1l-0.4-0.6l-0.2,0.3
			l-0.2,0.7L108,101.3z M61.4,91.4l0.3,0.1l-0.1-0.2c0-0.3-0.3-2.5-0.6-4.1h0c-0.2-0.9-0.3-1.6-0.3-1.6c0.2-0.3-0.5-0.7-0.5-0.8
			c0,0.4,0.1,0.8,0.3,1.1c-0.1,0.2-0.1,0.9,0,1.4h0c0,0.2,0.1,0.4,0.2,0.4c0,0.3,0.3,0.8,0.2,1.1l0.2,0.6L60.8,90
			C60.9,90.1,61.4,91.3,61.4,91.4z M61.9,94.6c0.2,0,0.4,0.2,0.5,0.3l0.1,0.4c0.3,0.1,0.5,0.6,0.5,0.8l0.1-0.3
			c-0.4-0.9-0.5-2.6-1.2-3.4c-0.1,0.2-0.2,0.6,0,0.9l-0.2,0c-0.1-0.3-0.2-0.6-0.4-0.8L61.2,93C61.6,93.2,61.8,94.2,61.9,94.6z"/>
		<path class="st2" d="M92,58.2c1-4.5,7.5-6.9,14.3-5.3c6.9,1.6,11.5,6.8,10.4,11c-1.1,4.5-7.4,6.9-14.2,5.3
			C95.6,67.7,90.9,62.7,92,58.2L92,58.2z M80,60.7c2-8.7,13.4-13.2,26.9-10.4c12.1,2.5,21.5,12.2,19.4,20.9
			c-2,8.7-13.9,13.7-26.8,10.7C86.5,78.9,77.9,69.4,80,60.7L80,60.7z M135.2,101.4c-6.2,13.1-25.1,20.4-44.1,15.8
			c-21.4-5.1-35-21.6-32-37.4 M120.9,120.1c-8.2,4.6-19.5,6.2-31.1,3.6c-15.6-3.5-26.5-14-30-24.9 M137.2,83.1
			c-0.1,2.1-0.3,4.8-0.5,5.6c-3.6,15-22.6,23.5-42.9,18.9C73.4,103,59.8,86.3,63.2,71.7c0.5-2.3,1.3-4.9,2.6-6.9 M130.3,65.6
			c2.6,4.5,3.9,10.1,2.8,14.6c-2.9,12.1-19.3,18.7-36.8,14.8c-17.4-3.9-28.8-16.9-26.2-29.5c0.7-3.5,3.5-7.3,6.3-9.9
			c0.8-0.7,1.6-1.5,2.5-2.2 M104.8,62.5c0,17.6-2.3,54.1-8.6,65 M106,62.5c4.2,12,11.6,50.4,2.1,63.7 M107.2,62.4
			c7.6,10.8,22.3,45,11.2,59.4 M108.1,62c12.7,11.6,27.3,37,20.3,51.1 M109.5,59.8c9.5,1.8,20,5.9,26,16.3 M109,61.5
			c14.2,8.1,29.5,27.3,25.5,41.6 M109.4,60.7c11.1,4.3,24.8,12,28,28.2 M109,58.8c6.9-0.3,15.7,1.5,22.1,7.9 M108.1,58
			c4.7-1.2,12-1.3,17.1,1.9 M107.2,57.3c3.4-2.2,8.3-3.3,11.9-2.3 M106.2,56.8c1.8-2.8,4.7-4.6,7.1-4.9 M105.2,56.5
			c0.8-2.5,0.8-5.5,0.2-7.1 M104.1,56.3c-0.6-3.2-2.7-6.5-5.3-7.7 M102.8,56.2c-2.6-3.4-6-6.6-11.2-7.1 M100.2,57.1
			c-6-2.8-16.2-5-26.1-0.5 M99.6,57.9c-8.6-1.9-24.5-3-34.4,7.8 M99.5,58.9c-14.3-0.3-34.4,4.1-40,19.3 M99.9,59.8
			c-18.6,3.3-41.2,15-41.6,31.5 M100.5,60.6c-14.6,5.6-39.9,21.6-39.8,41.2 M101.4,61.2C86.6,71.3,63.2,96.7,67,112.7 M102.4,61.8
			c-10.2,12.9-29,44.1-27.1,58.6 M103.5,62.2c-4.5,12.7-16.7,48.9-18.1,63.1 M101.5,56.4c-4.5-3.6-12-6.4-18.6-4.8"/>
	</g>
	<polygon class="st3" points="0,126.5 39.5,126.5 39.5,118.6 27.9,118.6 27.9,82 42.8,82 42.8,92.2 50.7,92.2 50.7,65.4 42.8,65.4 
		42.8,74.8 27.9,74.8 27.9,45.6 57.6,45.6 57.6,55.3 65.5,55.3 65.5,36.1 0,36.1 0,44 9.7,44 9.7,118.6 0,118.6 	"/>
	<path class="st3" d="M291.4,126.5h6l2-4.4c6.1,4.3,11.7,5.3,17.4,5.3c16.1,0,24.5-9.3,24.5-24.1c0-25.6-40-22.2-40-38.3
		c0-4.9,4.8-9.5,12.3-9.5c8,0.1,16.8,6.1,16.8,15.5h6.6V51h-5.9l-0.5,4.4c-3.6-3.4-11.8-5.3-18.2-5.3c-10.8,0-21.9,6.1-21.9,21.6
		c0,27.6,38.2,20.8,38.2,39.3c0,7.6-6.8,11.1-12.8,11.1c-10.6,0-18-8.4-18-16.1h-6.6V126.5z"/>
	<path class="st3" d="M209.3,51.1h-6l-1.8,6.7c-5.9-5.9-13.7-7.5-21.4-7.5c-22.6,0-36.8,18.5-36.8,38.7c0,20.2,13,38.7,39.1,38.7
		c8,0,17.8-1.2,29.3-13.3v-0.9l-4.1-4.3h-0.9c-5.6,7.8-12.8,12.5-21.2,12.5c-15.1,0-24.9-14-24.9-31.8c0-15.4,4.9-32.9,21.6-32.9
		c10.9,0,18.4,6.4,20.5,16.2h6.5V51.1z"/>
	<path class="st3" d="M215,57.8h8.1V101c0,19.7,15.8,26.9,30,26.8c19.7-0.2,26.6-11.5,26.6-28.5V57.8h8.1v-6.7h-22.2v6.7h8.1v40
		c0,19.1-8.9,23.3-18.6,23.3c-9.3,0-16.7-4.8-16.7-17.9V57.8h8.1v-6.7H215V57.8z"/>
	<g>
		<path class="st4" d="M276.6,36.1V18.9c0-1.4-0.2-2.9-0.5-4.5l-0.3-1.3c1,2.2,1.2,2.8,1.7,3.5l1.1,2l1,1.9l9.7,15.7h8.9V0.6h-8.9
			v10.5c0,2.9,0.3,6,0.9,9.3c-0.9-1.9-2.2-4.4-3.7-6.8l-8.3-13h-10.3v35.5H276.6z"/>
		<path class="st4" d="M303.6,18.7c0,10.8,6.9,18,17.3,18c5.1,0,8.9-1.5,12-4.8c2-2.1,2.8-3.6,4.1-7.4l-9.4-0.7
			c-0.7,3.7-2.8,5.6-6.3,5.6c-4.1,0-6.8-3-6.8-7.6c0-0.5,0.1-1,0.1-1.6h22.6c-0.1-6.6-0.6-8.9-2.9-12.6c-1.9-3.4-5.3-5.8-9.3-6.8
			H316C308.5,2.6,303.6,9.4,303.6,18.7z M321.1,6.7c3.8,0,5.5,2.1,5.9,7.3h-12.4C315.1,9,317.2,6.7,321.1,6.7z"/>
		<polygon class="st4" points="243.6,36.1 243.6,27.4 232.9,27.4 232.9,0.6 221.9,0.6 221.9,36.1 		"/>
		<rect x="248.8" y="0.6" class="st4" width="11" height="35.5"/>
		<path class="st4" d="M143.4,18.4c0,10.9,6.8,18.3,16.9,18.3c10.1,0,16.9-7.5,16.9-18.6c0-9.1-4.6-15.5-12-17.4h-9.5
			C148.1,2.5,143.4,9.1,143.4,18.4z M160.4,8.1c3.4,0,5,3,5,9.3v1c-0.1,2.9-0.4,5.3-0.8,6.8c-0.6,2.1-2.2,3.4-4.4,3.4
			c-3.5,0-5.2-3.2-5.2-9.9C155,11.8,156.9,8.1,160.4,8.1z"/>
		<path class="st4" d="M192.4,36.1V18.9c0-1.4-0.2-2.9-0.5-4.5l-0.3-1.3c1,2.2,1.2,2.8,1.6,3.5l1.1,2l1,1.9l9.7,15.7h8.9V0.6H205
			v10.5c0,2.9,0.3,6,0.9,9.3c-0.9-1.9-2.2-4.4-3.7-6.8l-8.3-13h-10.3v35.5H192.4z"/>
		<path class="st4" d="M330.4,3.1c-2.7-2-6.1-3.1-9.9-3.1c-3.8,0-7.2,1.1-9.8,3.1H330.4z"/>
		<path class="st4" d="M170.5,3.1c-2.8-2-6.2-3.1-10.2-3.1c-3.9,0-7.4,1.1-10.1,3.1H170.5z"/>
	</g>
</g>
<g id="Ebene_2">
</g>
</svg>
