<?xml version="1.0" encoding="utf-8"?>
<!-- Generator: Adobe Illustrator 18.1.1, SVG Export Plug-In . SVG Version: 6.00 Build 0)  -->
<svg version="1.1" id="Ebene_1" xmlns="http://www.w3.org/2000/svg" xmlns:xlink="http://www.w3.org/1999/xlink" x="0px" y="0px"
	 viewBox="0 0 960 560" enable-background="new 0 0 960 560" xml:space="preserve">
<g>
	<defs>
		<rect id="SVGID_1_" x="74" y="138.9" width="845" height="277.5"/>
	</defs>
	<clipPath id="SVGID_2_">
		<use xlink:href="#SVGID_1_"  overflow="visible"/>
	</clipPath>
	<path clip-path="url(#SVGID_2_)" fill="#FFFFFF" d="M877.8,404.7h6.6v-17.2c0-0.7,0.2-1.4,0.5-2.2c0.3-0.8,0.7-1.5,1.3-2.1
		c0.6-0.6,1.2-1.2,1.9-1.6s1.5-0.6,2.4-0.6c0.4,0,0.8,0.1,1.2,0.2c0.4,0.1,0.8,0.4,1.2,0.7c0.4,0.3,0.7,0.8,0.9,1.4
		c0.2,0.6,0.3,1.3,0.3,2.2v19.1h6.6v-17.5c0-0.9,0.2-1.7,0.5-2.5c0.3-0.8,0.8-1.4,1.3-1.9c0.5-0.5,1.1-1,1.8-1.3s1.3-0.5,2-0.5
		c0.5,0,0.9,0.1,1.4,0.2c0.5,0.1,0.9,0.4,1.2,0.7c0.4,0.3,0.7,0.8,0.9,1.4c0.3,0.6,0.4,1.3,0.4,2.2v19.1h6.6v-20.2
		c0-1.3-0.2-2.5-0.7-3.7c-0.5-1.1-1.2-2.1-2-2.9c-0.9-0.8-1.9-1.5-3-1.9c-1.2-0.5-2.5-0.7-3.9-0.7c-1.5,0-3,0.3-4.5,0.8
		c-1.5,0.6-2.9,1.5-4.1,2.9c-1-1.3-2.1-2.3-3.3-2.8s-2.5-0.9-3.8-0.9c-1.2,0-2.3,0.2-3.6,0.6c-1.2,0.4-2.4,1-3.5,1.9v-2h-6.6V404.7z
		 M852.8,386.9c0.2-0.8,0.4-1.6,0.8-2.3c0.4-0.7,0.8-1.3,1.4-1.9c0.5-0.5,1.2-1,1.9-1.3c0.7-0.3,1.5-0.5,2.3-0.5
		c1.9,0,3.4,0.5,4.5,1.6c1.1,1.1,1.8,2.5,2.1,4.2H852.8z M872.6,392.1v-2.6c0-2-0.3-3.9-0.9-5.6c-0.6-1.7-1.5-3.2-2.6-4.5
		c-1.1-1.3-2.5-2.2-4.1-3c-1.6-0.7-3.4-1.1-5.5-1.1c-2.1,0-4,0.4-5.6,1.2s-3.1,1.9-4.3,3.2c-1.2,1.3-2.1,2.9-2.7,4.6
		c-0.6,1.7-1,3.6-1,5.5c0,2.1,0.3,4.1,1,5.9c0.6,1.9,1.6,3.5,2.8,4.9c1.2,1.4,2.6,2.5,4.3,3.3c1.7,0.8,3.5,1.2,5.6,1.2
		c1.5,0,2.9-0.2,4.3-0.7c1.4-0.5,2.6-1.2,3.8-2.1c1.1-0.9,2.1-2.1,3-3.5c0.8-1.4,1.4-2.9,1.8-4.6H866c-1.2,3.6-3.4,5.4-6.6,5.4
		c-0.9,0-1.7-0.2-2.4-0.6c-0.8-0.4-1.4-1-2-1.7c-0.6-0.7-1.1-1.5-1.5-2.4c-0.4-0.9-0.7-1.8-0.8-2.8H872.6z M830.8,367.9v7.9h-4.2
		v5.5h4.2V399c0,1.2,0.2,2.1,0.6,2.9c0.4,0.8,0.9,1.4,1.5,1.9c0.6,0.5,1.3,0.9,2.1,1.1s1.7,0.3,2.6,0.3c0.7,0,1.5-0.1,2.3-0.2
		c0.8-0.1,1.6-0.3,2.5-0.6v-5.3c-0.9,0.2-1.6,0.3-2.1,0.4c-0.5,0.1-0.8,0.1-1.1,0.1c-0.4,0-0.8-0.1-1.1-0.4
		c-0.3-0.3-0.5-0.8-0.5-1.6v-16.2h4.1v-5.5h-4.1v-7.9H830.8z M799.8,394.3c0,1.9,0.4,3.5,1,4.8c0.6,1.4,1.5,2.5,2.5,3.4
		s2.3,1.6,3.7,2c1.4,0.4,2.9,0.7,4.4,0.7c1.6,0,3.2-0.2,4.6-0.5c1.5-0.3,2.7-0.9,3.8-1.6c1.1-0.7,2-1.7,2.6-2.8c0.6-1.2,1-2.6,1-4.2
		c0-1.3-0.3-2.4-0.9-3.3s-1.4-1.7-2.3-2.3c-0.9-0.7-2-1.2-3.2-1.7s-2.4-0.9-3.5-1.3l-0.3-0.1c-1.5-0.5-2.8-1.1-4-1.7
		c-1.1-0.6-1.7-1.3-1.7-2.2c0-0.7,0.3-1.3,1-1.7c0.7-0.4,1.7-0.6,2.9-0.6c1.2,0,2.2,0.3,3,0.8c0.9,0.5,1.4,1.5,1.6,3h4.1h0.5
		c0.2,0,0.5,0,0.8,0c0.3,0,0.5,0,0.8,0h0.5c-0.1-1.6-0.4-3-1-4.2c-0.6-1.2-1.4-2.2-2.4-3c-1-0.8-2.2-1.3-3.5-1.7
		c-1.4-0.4-2.8-0.6-4.4-0.6c-1.4,0-2.7,0.2-4,0.5c-1.3,0.3-2.4,0.8-3.4,1.5c-1,0.7-1.8,1.5-2.3,2.5c-0.6,1-0.9,2.2-0.9,3.5
		c0,1.4,0.3,2.6,0.9,3.5c0.6,1,1.4,1.8,2.3,2.5c0.9,0.7,2,1.2,3.2,1.7c1.2,0.5,2.4,0.9,3.6,1.3c0.8,0.3,1.5,0.5,2.2,0.8
		c0.7,0.3,1.3,0.5,1.9,0.9s1,0.7,1.3,1.1c0.3,0.4,0.5,0.8,0.5,1.3c0,0.6-0.2,1.1-0.5,1.5c-0.3,0.4-0.8,0.7-1.3,1
		c-0.5,0.3-1.1,0.4-1.7,0.5c-0.6,0.1-1.2,0.1-1.8,0.1c-1.4,0-2.5-0.4-3.4-1.2c-0.9-0.8-1.4-2.2-1.5-4.2H799.8z M777.9,375.9h-7.1
		l10.4,28.1c-0.8,2.4-1.4,4.1-1.9,5.2c-0.5,1.1-0.9,1.7-1.4,1.7c-0.1,0-0.3,0-0.6-0.1c-0.3-0.1-0.6-0.2-1-0.3
		c-0.3-0.1-0.7-0.3-1.1-0.4c-0.4-0.2-0.7-0.3-1-0.4v5.9c0.9,0.3,1.7,0.6,2.4,0.7c0.7,0.1,1.3,0.2,1.9,0.2c1.4,0,2.7-0.5,4.1-1.5
		c1.4-1,2.5-2.6,3.3-5l12-34.1h-7c-1,3-2.1,6.1-3.2,9.3s-2.2,6.3-3.3,9.5L777.9,375.9z M744.6,394.3c0,1.9,0.4,3.5,1,4.8
		c0.6,1.4,1.5,2.5,2.5,3.4c1,0.9,2.3,1.6,3.7,2c1.4,0.4,2.9,0.7,4.4,0.7c1.6,0,3.2-0.2,4.6-0.5s2.7-0.9,3.8-1.6
		c1.1-0.7,2-1.7,2.6-2.8c0.6-1.2,1-2.6,1-4.2c0-1.3-0.3-2.4-0.9-3.3c-0.6-0.9-1.4-1.7-2.3-2.3c-0.9-0.7-2-1.2-3.2-1.7
		c-1.2-0.5-2.4-0.9-3.5-1.3l-0.3-0.1c-1.5-0.5-2.8-1.1-4-1.7c-1.1-0.6-1.7-1.3-1.7-2.2c0-0.7,0.3-1.3,1-1.7c0.7-0.4,1.7-0.6,2.9-0.6
		c1.2,0,2.2,0.3,3,0.8c0.9,0.5,1.4,1.5,1.6,3h4.1h0.5c0.2,0,0.5,0,0.8,0c0.3,0,0.5,0,0.8,0h0.5c-0.1-1.6-0.4-3-1-4.2
		c-0.6-1.2-1.4-2.2-2.4-3c-1-0.8-2.2-1.3-3.5-1.7c-1.4-0.4-2.8-0.6-4.4-0.6c-1.4,0-2.7,0.2-4,0.5c-1.3,0.3-2.4,0.8-3.4,1.5
		c-1,0.7-1.8,1.5-2.3,2.5c-0.6,1-0.9,2.2-0.9,3.5c0,1.4,0.3,2.6,0.9,3.5c0.6,1,1.4,1.8,2.3,2.5c0.9,0.7,2,1.2,3.2,1.7
		c1.2,0.5,2.4,0.9,3.6,1.3c0.8,0.3,1.5,0.5,2.2,0.8c0.7,0.3,1.3,0.5,1.9,0.9s1,0.7,1.3,1.1c0.3,0.4,0.5,0.8,0.5,1.3
		c0,0.6-0.2,1.1-0.5,1.5c-0.3,0.4-0.8,0.7-1.3,1c-0.5,0.3-1.1,0.4-1.7,0.5s-1.2,0.1-1.8,0.1c-1.4,0-2.5-0.4-3.4-1.2
		c-0.9-0.8-1.4-2.2-1.5-4.2H744.6z M715.4,367.9v7.9h-4.2v5.5h4.2V399c0,1.2,0.2,2.1,0.6,2.9c0.4,0.8,0.9,1.4,1.5,1.9
		c0.6,0.5,1.3,0.9,2.1,1.1s1.7,0.3,2.6,0.3c0.7,0,1.5-0.1,2.3-0.2c0.8-0.1,1.6-0.3,2.5-0.6v-5.3c-0.9,0.2-1.6,0.3-2.1,0.4
		c-0.5,0.1-0.8,0.1-1.1,0.1c-0.4,0-0.8-0.1-1.1-0.4c-0.3-0.3-0.5-0.8-0.5-1.6v-16.2h4.1v-5.5h-4.1v-7.9H715.4z M683.5,404.7h6.7
		v-17.1c0-0.9,0.2-1.7,0.6-2.5c0.4-0.8,0.9-1.5,1.6-2.1c0.7-0.6,1.4-1.1,2.3-1.5c0.9-0.4,1.8-0.6,2.8-0.6c1.1,0,1.9,0.3,2.6,0.9
		s0.9,1.6,0.9,3v19.8h6.6v-20.2c0-2.8-0.8-5-2.4-6.6s-3.9-2.5-6.9-2.5c-1.4,0-2.8,0.2-4.1,0.7c-1.4,0.4-2.7,1.1-3.9,2v-2.1h-6.7
		V404.7z M658.8,386.9c0.2-0.8,0.4-1.6,0.8-2.3c0.4-0.7,0.8-1.3,1.4-1.9c0.5-0.5,1.2-1,1.9-1.3c0.7-0.3,1.5-0.5,2.3-0.5
		c1.9,0,3.4,0.5,4.5,1.6c1.1,1.1,1.8,2.5,2.1,4.2H658.8z M678.6,392.1v-2.6c0-2-0.3-3.9-0.9-5.6c-0.6-1.7-1.5-3.2-2.6-4.5
		c-1.1-1.3-2.5-2.2-4.1-3c-1.6-0.7-3.4-1.1-5.5-1.1c-2.1,0-4,0.4-5.6,1.2c-1.7,0.8-3.1,1.9-4.3,3.2c-1.2,1.3-2.1,2.9-2.7,4.6
		s-1,3.6-1,5.5c0,2.1,0.3,4.1,1,5.9c0.6,1.9,1.6,3.5,2.8,4.9c1.2,1.4,2.6,2.5,4.3,3.3c1.7,0.8,3.5,1.2,5.6,1.2
		c1.5,0,2.9-0.2,4.3-0.7c1.4-0.5,2.6-1.2,3.8-2.1c1.1-0.9,2.1-2.1,3-3.5c0.8-1.4,1.4-2.9,1.8-4.6H672c-1.2,3.6-3.4,5.4-6.6,5.4
		c-0.9,0-1.7-0.2-2.4-0.6c-0.8-0.4-1.4-1-2-1.7c-0.6-0.7-1.1-1.5-1.5-2.4c-0.4-0.9-0.7-1.8-0.8-2.8H678.6z M607,404.7h6.6v-17.2
		c0-0.7,0.2-1.4,0.5-2.2c0.3-0.8,0.7-1.5,1.3-2.1c0.6-0.6,1.2-1.2,1.9-1.6s1.5-0.6,2.4-0.6c0.4,0,0.8,0.1,1.2,0.2
		c0.4,0.1,0.8,0.4,1.2,0.7s0.7,0.8,0.9,1.4c0.2,0.6,0.3,1.3,0.3,2.2v19.1h6.6v-17.5c0-0.9,0.2-1.7,0.5-2.5c0.3-0.8,0.8-1.4,1.3-1.9
		c0.5-0.5,1.1-1,1.8-1.3c0.7-0.3,1.3-0.5,2-0.5c0.5,0,0.9,0.1,1.4,0.2c0.5,0.1,0.9,0.4,1.2,0.7s0.7,0.8,0.9,1.4
		c0.3,0.6,0.4,1.3,0.4,2.2v19.1h6.6v-20.2c0-1.3-0.2-2.5-0.7-3.7c-0.5-1.1-1.2-2.1-2-2.9c-0.9-0.8-1.9-1.5-3-1.9
		c-1.2-0.5-2.5-0.7-3.9-0.7c-1.5,0-3,0.3-4.5,0.8c-1.5,0.6-2.9,1.5-4.1,2.9c-1-1.3-2.1-2.3-3.3-2.8s-2.5-0.9-3.8-0.9
		c-1.2,0-2.3,0.2-3.6,0.6c-1.2,0.4-2.4,1-3.5,1.9v-2H607V404.7z M577.6,404.7h6.7v-17.1c0-0.9,0.2-1.7,0.6-2.5
		c0.4-0.8,0.9-1.5,1.6-2.1c0.7-0.6,1.4-1.1,2.3-1.5s1.8-0.6,2.8-0.6c1.1,0,1.9,0.3,2.6,0.9s0.9,1.6,0.9,3v19.8h6.6v-20.2
		c0-2.8-0.8-5-2.4-6.6c-1.6-1.6-3.9-2.5-6.9-2.5c-1.4,0-2.8,0.2-4.1,0.7c-1.4,0.4-2.7,1.1-3.9,2v-2.1h-6.7V404.7z M566.6,404.7h6.6
		v-28.8h-6.6V404.7z M566.6,371.9h6.6v-6.7h-6.6V371.9z M553.3,394.4c-1,1.7-2.2,3.1-3.6,3.9c-1.4,0.9-2.7,1.3-4,1.3
		c-0.8,0-1.6-0.3-2.2-0.8c-0.7-0.5-1-1.3-1-2.5c0-0.5,0.2-0.9,0.5-1.3c0.3-0.4,0.8-0.7,1.3-1c0.5-0.3,1.1-0.6,1.8-0.8
		c0.7-0.2,1.4-0.5,2.1-0.7l0.5-0.1c0.9-0.2,1.7-0.5,2.5-0.8c0.8-0.3,1.5-0.6,2.2-0.9V394.4z M543.3,385.2c0.2-1.5,0.8-2.5,1.7-3.2
		c0.9-0.6,2-1,3.2-1c1.6,0,2.9,0.3,3.8,0.8c0.9,0.5,1.3,1.4,1.3,2.6c0,0.4-0.2,0.7-0.5,1c-0.3,0.3-0.8,0.6-1.3,0.8
		c-0.6,0.3-1.2,0.5-1.9,0.7c-0.7,0.2-1.5,0.4-2.3,0.7c-1.3,0.3-2.6,0.7-4,1.2c-1.4,0.4-2.6,1-3.7,1.7c-1.1,0.7-2,1.5-2.7,2.5
		c-0.7,1-1,2.2-1,3.7c0,1.3,0.2,2.5,0.7,3.5c0.5,1,1.1,1.9,2,2.7c0.8,0.8,1.8,1.3,3,1.7c1.1,0.4,2.3,0.6,3.6,0.6
		c1.5,0,3.1-0.2,4.6-0.7c1.5-0.5,3-1.4,4.5-2.7c0.4,1.2,1.1,2.1,1.9,2.6s1.8,0.8,3,0.8c0.7,0,1.3-0.1,1.9-0.2
		c0.6-0.1,1.3-0.3,2.3-0.6v-5.5c-0.8,0.2-1.4,0.4-1.9,0.5c-0.5,0.2-0.7,0.2-0.8,0.2c-0.2,0-0.3-0.1-0.4-0.4
		c-0.1-0.3-0.2-0.5-0.2-0.8v-14.1c0-1.6-0.3-3-1-4.1c-0.7-1.1-1.5-2-2.6-2.8c-1.1-0.7-2.3-1.3-3.7-1.6c-1.4-0.3-2.8-0.5-4.4-0.5
		c-1.4,0-2.7,0.2-4.1,0.6c-1.4,0.4-2.6,1-3.7,1.8c-1.1,0.8-2,1.8-2.8,3s-1.2,2.7-1.3,4.4H543.3z M520.6,367.9v7.9h-4.2v5.5h4.2V399
		c0,1.2,0.2,2.1,0.6,2.9c0.4,0.8,0.9,1.4,1.5,1.9c0.6,0.5,1.3,0.9,2.1,1.1c0.8,0.2,1.7,0.3,2.6,0.3c0.7,0,1.5-0.1,2.3-0.2
		c0.8-0.1,1.6-0.3,2.5-0.6v-5.3c-0.9,0.2-1.6,0.3-2.1,0.4c-0.5,0.1-0.8,0.1-1.1,0.1c-0.4,0-0.8-0.1-1.1-0.4
		c-0.3-0.3-0.5-0.8-0.5-1.6v-16.2h4.1v-5.5h-4.1v-7.9H520.6z M493,386.7c0.3-1.1,0.8-2.1,1.4-3c0.6-0.9,1.3-1.5,2.2-2
		c0.9-0.5,1.8-0.7,2.8-0.7s2,0.2,2.8,0.7c0.9,0.5,1.6,1.2,2.2,2c0.6,0.9,1.1,1.8,1.4,3s0.5,2.3,0.5,3.6c0,1.3-0.2,2.5-0.5,3.6
		c-0.3,1.1-0.8,2.1-1.4,2.9c-0.6,0.8-1.3,1.5-2.2,2c-0.9,0.5-1.8,0.7-2.8,0.7s-2-0.2-2.8-0.7c-0.9-0.5-1.6-1.1-2.2-2
		c-0.6-0.8-1.1-1.8-1.4-2.9c-0.3-1.1-0.5-2.3-0.5-3.6C492.6,389.1,492.7,387.9,493,386.7 M486.9,396.1c0.6,1.8,1.4,3.4,2.6,4.7
		c1.1,1.3,2.5,2.4,4.2,3.2c1.7,0.8,3.6,1.2,5.7,1.2s4.1-0.4,5.8-1.2c1.7-0.8,3.1-1.8,4.2-3.2c1.1-1.3,2-2.9,2.6-4.7
		c0.6-1.8,0.9-3.8,0.9-5.8c0-2-0.3-4-0.9-5.8c-0.6-1.8-1.5-3.4-2.6-4.8c-1.1-1.4-2.6-2.4-4.2-3.2s-3.6-1.2-5.8-1.2s-4.1,0.4-5.7,1.2
		c-1.7,0.8-3.1,1.9-4.2,3.2c-1.1,1.4-2,2.9-2.6,4.8c-0.6,1.8-0.9,3.8-0.9,5.8C486,392.4,486.3,394.3,486.9,396.1 M469,375.9v5.6h4.6
		v23.2h6.7v-23.2h4.6v-5.6h-4.6v-4.8c0-0.4,0.2-0.8,0.5-1c0.3-0.2,0.7-0.3,1.2-0.3c0.3,0,1.4,0.4,3.4,1.3v-5.4
		c-0.8-0.5-1.7-0.9-2.5-1.2c-0.9-0.3-1.6-0.4-2.2-0.4c-2.2,0-3.9,0.6-5.2,1.7c-1.2,1.2-1.9,2.7-1.9,4.5v5.5H469z M440.9,404.7h6.7
		v-17.1c0-0.9,0.2-1.7,0.6-2.5c0.4-0.8,0.9-1.5,1.6-2.1c0.7-0.6,1.4-1.1,2.3-1.5c0.9-0.4,1.8-0.6,2.8-0.6c1.1,0,1.9,0.3,2.6,0.9
		c0.6,0.6,0.9,1.6,0.9,3v19.8h6.6v-20.2c0-2.8-0.8-5-2.4-6.6s-3.9-2.5-6.9-2.5c-1.4,0-2.8,0.2-4.1,0.7c-1.4,0.4-2.7,1.1-3.9,2v-2.1
		h-6.7V404.7z M429.9,404.7h6.6v-28.8h-6.6V404.7z M429.9,371.9h6.6v-6.7h-6.6V371.9z"/>
	<path clip-path="url(#SVGID_2_)" fill="#009EE2" d="M596.1,339.6H630V138.9h-33.9V339.6z M465,168.2h44.7c8.7,0,15.9,2.8,21.6,8.4
		c5.7,5.6,8.6,12.8,8.6,21.5c0,4.4-0.8,8.6-2.5,12.3c-1.6,3.8-3.8,7.1-6.5,9.9c-2.7,2.8-5.9,5-9.6,6.7c-3.7,1.6-7.5,2.5-11.6,2.5
		H465V168.2z M431.1,339.6H465v-81.5h44.7c10.2,0,19.4-1.7,27.4-5.1c8-3.4,14.7-7.8,20.2-13.3c5.4-5.5,9.5-11.9,12.3-19.1
		c2.8-7.3,4.2-14.6,4.2-22.2c0-7.2-1.4-14.3-4.2-21.3c-2.8-7.1-6.9-13.4-12.3-19.1c-5.4-5.7-12.1-10.3-20-13.8
		c-7.9-3.5-17.1-5.2-27.6-5.2h-78.6V339.6z M316.2,195.4h-35.4l51.9,140.4c-3.9,12-7,20.7-9.3,26.2c-2.3,5.5-4.6,8.3-7,8.3
		c-0.6,0-1.6-0.2-3-0.6c-1.5-0.4-3-0.9-4.8-1.6c-1.7-0.7-3.6-1.4-5.5-2.2c-1.9-0.8-3.7-1.5-5.2-2v29.6c4.6,1.7,8.6,2.9,11.9,3.5
		s6.4,0.9,9.3,0.9c6.8,0,13.6-2.5,20.6-7.4s12.5-13.2,16.5-24.8l60-170.3h-34.8c-5,15.1-10.3,30.6-16,46.4
		c-5.6,15.9-11.1,31.6-16.5,47.3L316.2,195.4z M74,138.9v200.7h33.9V215.7l46.4,123.9h28.1c7.3-20.1,14.8-40.5,22.5-61.2
		c7.6-20.7,15.2-41.4,22.8-62.1v123.3H262V138.9h-38.3c-9.1,24.2-18.4,48.8-28,73.8c-9.6,25-19.1,49.8-28.6,74.4l-55.4-148.2H74z"/>
</g>
<line fill="none" stroke="#FFFFFF" stroke-width="4" x1="903.6" y1="209.6" x2="701.9" y2="209.6"/>
<g>
	<defs>
		<rect id="SVGID_3_" x="74" y="138.9" width="845" height="277.5"/>
	</defs>
	<clipPath id="SVGID_4_">
		<use xlink:href="#SVGID_3_"  overflow="visible"/>
	</clipPath>
	<path clip-path="url(#SVGID_4_)" fill="#009EE2" d="M888.2,209.6c0,8.7,6.9,15.7,15.4,15.7s15.4-7,15.4-15.7
		c0-8.7-6.9-15.7-15.4-15.7S888.2,201,888.2,209.6"/>
</g>
<line fill="none" stroke="#FFFFFF" stroke-width="4" x1="903.6" y1="323" x2="701.9" y2="323"/>
<g>
	<defs>
		<rect id="SVGID_5_" x="74" y="138.9" width="845" height="277.5"/>
	</defs>
	<clipPath id="SVGID_6_">
		<use xlink:href="#SVGID_5_"  overflow="visible"/>
	</clipPath>
	<path clip-path="url(#SVGID_6_)" fill="#009EE2" d="M888.2,323c0,8.7,6.9,15.7,15.4,15.7s15.4-7,15.4-15.7s-6.9-15.7-15.4-15.7
		S888.2,314.4,888.2,323"/>
	<line clip-path="url(#SVGID_6_)" fill="none" stroke="#FFFFFF" stroke-width="4" x1="717.3" y1="266.3" x2="919" y2="266.3"/>
	<path clip-path="url(#SVGID_6_)" fill="#009EE2" d="M732.7,266.3c0-8.7-6.9-15.7-15.4-15.7s-15.4,7-15.4,15.7
		c0,8.7,6.9,15.7,15.4,15.7S732.7,275,732.7,266.3"/>
</g>
</svg>
