<?xml version="1.0" encoding="UTF-8" standalone="no"?>
<!-- Created with Inkscape (http://www.inkscape.org/) -->

<svg
   xmlns:dc="http://purl.org/dc/elements/1.1/"
   xmlns:cc="http://creativecommons.org/ns#"
   xmlns:rdf="http://www.w3.org/1999/02/22-rdf-syntax-ns#"
   xmlns:svg="http://www.w3.org/2000/svg"
   xmlns="http://www.w3.org/2000/svg"
   xmlns:sodipodi="http://sodipodi.sourceforge.net/DTD/sodipodi-0.dtd"
   xmlns:inkscape="http://www.inkscape.org/namespaces/inkscape"
   width="66mm"
   height="66mm"
   viewBox="0 0 233.85813 233.85813"
   id="svg2"
   version="1.1"
   inkscape:version="0.91 r13725"
   sodipodi:docname="play.svg"
   inkscape:export-filename="C:\xampp\htdocs\mypi\pics\mypi_logo_1.png"
   inkscape:export-xdpi="300"
   inkscape:export-ydpi="300">
  <defs
     id="defs4">
    <rect
       height="139.2"
       width="139"
       y="343.79999"
       x="517"
       id="c" />
  </defs>
  <sodipodi:namedview
     id="base"
     pagecolor="#ffffff"
     bordercolor="#666666"
     borderopacity="1.0"
     inkscape:pageopacity="0.0"
     inkscape:pageshadow="2"
     inkscape:zoom="0.35"
     inkscape:cx="-187.35694"
     inkscape:cy="635.58676"
     inkscape:document-units="px"
     inkscape:current-layer="layer1"
     showgrid="false"
     inkscape:window-width="1366"
     inkscape:window-height="705"
     inkscape:window-x="-8"
     inkscape:window-y="-8"
     inkscape:window-maximized="1"
     units="mm"
     width="296mm" />
  <metadata
     id="metadata7">
    <rdf:RDF>
      <cc:Work
         rdf:about="">
        <dc:format>image/svg+xml</dc:format>
        <dc:type
           rdf:resource="http://purl.org/dc/dcmitype/StillImage" />
        <dc:title></dc:title>
      </cc:Work>
    </rdf:RDF>
  </metadata>
  <g
     inkscape:label="Ebene 1"
     inkscape:groupmode="layer"
     id="layer1"
     transform="translate(0,-818.50428)">
    <g
       transform="matrix(1.2542814,0,0,1.2542814,8.5432357,-273.2821)"
       id="layer1-3"
       inkscape:label="Ebene 1">
      <path
         style="fill:#ffffff"
         inkscape:connector-curvature="0"
         d="M 162.94785,920.19587 C 139.75634,879.71614 88.31335,866.2229 47.833621,889.41441 7.3538917,912.60592 -6.1393511,964.04891 17.05216,1004.5286 c 23.191512,40.4798 75.056164,53.973 115.11423,30.7815 40.47973,-23.1915 53.97297,-74.6345 30.78146,-115.11423 z m -39.21474,100.77763 c -32.468114,18.5532 -73.369506,7.59 -92.344379,-24.87814 -18.553209,-32.04645 -7.168285,-73.3695 24.878167,-92.34438 32.468115,-18.55321 73.369512,-7.58995 92.344382,24.87817 18.55321,32.46812 7.58995,73.36955 -24.87817,92.34435 z m -3.37331,-61.98455 -44.274702,-25.7215 c -5.059966,-1.68665 -5.903293,-0.84333 -7.168285,4.21664 l 0.421664,51.02132 c 0.843328,5.05997 2.529983,5.9033 7.168285,4.21664 L 120.3598,967.42222 c 3.79498,-2.95164 3.79498,-5.48163 0,-8.43327 z"
         id="path4187" />
    </g>
  </g>
</svg>
