<?xml version="1.0" encoding="UTF-8" standalone="no"?>
<!-- Created with Inkscape (http://www.inkscape.org/) -->

<svg
   xmlns:dc="http://purl.org/dc/elements/1.1/"
   xmlns:cc="http://creativecommons.org/ns#"
   xmlns:rdf="http://www.w3.org/1999/02/22-rdf-syntax-ns#"
   xmlns:svg="http://www.w3.org/2000/svg"
   xmlns="http://www.w3.org/2000/svg"
   xmlns:sodipodi="http://sodipodi.sourceforge.net/DTD/sodipodi-0.dtd"
   xmlns:inkscape="http://www.inkscape.org/namespaces/inkscape"
   width="96mm"
   height="25mm"
   viewBox="0 0 340.15761 88.58263"
   id="svg2"
   version="1.1"
   inkscape:version="0.91 r13725"
   sodipodi:docname="spiegel.svg">
  <defs
     id="defs4">
    <clipPath
       clipPathUnits="userSpaceOnUse"
       id="clipPath4174">
      <rect
         style="opacity:1;fill:#ffffff;fill-opacity:1;stroke:#ea0000;stroke-width:0;stroke-linejoin:round;stroke-miterlimit:4;stroke-dasharray:none;stroke-dashoffset:0;stroke-opacity:1"
         id="rect4176"
         width="334.28571"
         height="140"
         x="-8.5006361"
         y="-13.571424" />
    </clipPath>
  </defs>
  <sodipodi:namedview
     id="base"
     pagecolor="#ffffff"
     bordercolor="#666666"
     borderopacity="1.0"
     inkscape:pageopacity="0.0"
     inkscape:pageshadow="2"
     inkscape:zoom="0.35"
     inkscape:cx="-90.714286"
     inkscape:cy="520"
     inkscape:document-units="px"
     inkscape:current-layer="layer1"
     showgrid="false"
     inkscape:window-width="1366"
     inkscape:window-height="705"
     inkscape:window-x="-8"
     inkscape:window-y="-8"
     inkscape:window-maximized="1" />
  <metadata
     id="metadata7">
    <rdf:RDF>
      <cc:Work
         rdf:about="">
        <dc:format>image/svg+xml</dc:format>
        <dc:type
           rdf:resource="http://purl.org/dc/dcmitype/StillImage" />
        <dc:title></dc:title>
      </cc:Work>
    </rdf:RDF>
  </metadata>
  <g
     inkscape:label="Ebene 1"
     inkscape:groupmode="layer"
     id="layer1"
     transform="translate(0,-963.7796)">
    <g
       id="g4157"
       transform="translate(8.5006353,974.50506)"
       clip-path="url(#clipPath4174)">
      <path
         style="fill:#961618"
         id="path3069"
         d="m 659.4776,65.1659 2.6106,0 c 4.2535,0 4.9309,-0.4839 4.9309,-4.9309 l 0,-50.4699 c 0,-4.4476 -0.6774,-4.9309 -4.9309,-4.9309 l -2.6106,0 0,-3.8676 c 2.2235,0.0968 4.35,0.1936 6.477,0.29 2.127,0.0964 4.2547,0.0968 6.4782,0.0968 l 21.7548,0 c 4.9309,0 9.5715,-0.1936 14.0185,-0.3871 l 0.7742,16.05 -4.0611,0 C 703.3719,6.9615 701.8247,5.9943 693.6069,5.9943 l -16.9195,0 0,24.7513 8.7985,0 c 12.0853,0 12.9552,-0.193 12.9552,-5.4142 l 0,-1.9337 3.8675,0 0,21.078 -3.8676,0 0,-1.0646 c 0,-7.5409 -1.5473,-7.9275 -9.6683,-8.0242 l -12.0853,0 0,28.6188 20.2064,0 c 6.9621,0 8.219,-0.4839 12.28,-11.5059 l 4.2535,0 -3.48,16.5336 c -13.15,-0.1936 -26.2986,-0.3871 -35.3874,-0.3871 -7.7339,0 -11.795,0.1936 -15.0819,0.3871 l 0,-3.8675 z"
         inkscape:connector-curvature="0" />
      <path
         style="fill:#961618"
         id="path3071"
         d="m 596.8907,12.5692 -0.2907,0 0,47.6657 c 0,4.447 0.6763,4.9309 4.9309,4.9309 l 3.3837,0 0,3.8675 c -3.5772,-0.1936 -7.2512,-0.3871 -10.8284,-0.3871 -3.5772,0 -7.2512,0.1936 -10.8284,0.3871 l 0,-3.8674 3.3837,0 c 4.2535,0 4.9309,-0.4839 4.9309,-4.9309 l 0,-50.4699 c 0,-4.4476 -0.6774,-4.9309 -4.9309,-4.9309 l -3.3837,0 0,-3.8676 c 2.9,0.1936 5.8975,0.3871 8.8941,0.3871 2.9966,0 5.9955,-0.1936 8.8952,-0.3871 a 18.5814,18.5814 0 0 0 2.5138,4.3508 L 639.141,52.5 l 0.1936,0 0,-42.7349 c 0,-4.4476 -0.6763,-4.9309 -4.9309,-4.9309 l -3.3837,0 0,-3.8676 c 3.674,0.1936 7.2512,0.3871 10.8284,0.3871 3.5772,0 7.1556,-0.1937 10.8296,-0.3871 l 0,3.8675 -3.3848,0 c -4.2535,0 -4.9309,0.4833 -4.9309,4.9309 l 0,60.235 -4.2535,0 z"
         inkscape:connector-curvature="0" />
      <path
         style="fill:#961618"
         id="path3073"
         d="m 549.1611,65.1659 3.3837,0 c 4.2535,0 4.9309,-0.4839 4.9309,-5.0277 l 0,-50.3731 c 0,-4.4476 -0.6774,-4.9309 -4.9309,-4.9309 l -3.3837,0 0,-3.8676 c 4.35,0.1936 8.7985,0.3871 13.1487,0.3871 4.3502,0 8.7985,-0.1937 13.1487,-0.3871 l 0,3.8675 -3.3837,0 c -4.2535,0 -4.9309,0.4833 -4.9309,4.9309 l 0,50.3732 c 0,4.5438 0.6774,5.0277 4.9309,5.0277 l 3.3837,0 0,3.8675 c -4.35,-0.1936 -8.7973,-0.3871 -13.1487,-0.3871 -4.3514,0 -8.7985,0.1936 -13.1487,0.3871 l 0,-3.8675 z"
         inkscape:connector-curvature="0" />
      <path
         style="fill:#961618"
         id="path3075"
         d="m 490.0893,65.1659 3.3837,0 c 4.2535,0 4.9309,-0.4839 4.9309,-4.9309 l 0,-50.4699 c 0,-4.4476 -0.6774,-4.9309 -4.9309,-4.9309 l -3.3837,0 0,-3.8676 c 4.35,0.1936 8.7985,0.3871 13.1487,0.3871 4.3502,0 8.7984,-0.1937 13.1487,-0.3871 l 0,3.8675 -3.3837,0 c -4.2535,0 -4.9309,0.4833 -4.9309,4.9309 l 0,54.2407 18.4667,0 c 8.3146,0 9.9586,-1.16 11.893,-6.5749 l 2.4171,-6.8641 4.06,0 -3.48,18.4667 c -9.8618,-0.1936 -19.82,-0.3871 -29.779,-0.3871 -7.2512,0 -14.4056,0.1936 -21.56,0.3871 l 0,-3.8675 z"
         inkscape:connector-curvature="0" />
      <path
         style="fill:#961618"
         id="path3077"
         d="m 428.1326,12.5692 -0.29,0 0,47.6657 c 0,4.447 0.6763,4.9309 4.9309,4.9309 l 3.3837,0 0,3.8675 c -3.5772,-0.1936 -7.2512,-0.3871 -10.8284,-0.3871 -3.5772,0 -7.2512,0.1936 -10.8284,0.3871 l 0,-3.8674 3.3837,0 c 4.2535,0 4.9309,-0.4839 4.9309,-4.9309 l 0,-50.4699 c 0,-4.4476 -0.6774,-4.9309 -4.9309,-4.9309 l -3.3841,0 0,-3.8676 c 2.9,0.1936 5.8975,0.3871 8.8941,0.3871 2.9966,0 5.9959,-0.1937 8.8952,-0.3871 a 18.5814,18.5814 0 0 0 2.5138,4.3508 l 35.5798,47.1826 0.1936,0 0,-42.7349 c 0,-4.4476 -0.6763,-4.9309 -4.9309,-4.9309 l -3.3837,0 0,-3.8676 c 3.674,0.1936 7.2512,0.3871 10.8284,0.3871 3.5772,0 7.1556,-0.1937 10.8297,-0.3871 l 0,3.8675 -3.3848,0 c -4.2535,0 -4.9309,0.4833 -4.9309,4.9309 l 0,60.235 -4.2535,0 z"
         inkscape:connector-curvature="0" />
      <path
         style="fill:#961618"
         id="path3079"
         d="M 380.2607,0 C 400.8541,0 413.52,13.5358 413.52,34.0331 413.52,52.79 402.1111,70 379.39,70 355.8952,70 347,52.3063 347,35.58 347,14.696 359.86,0 380.2607,0 Z m -0.9678,65.7453 c 17.1142,0 23.3977,-14.4056 23.3977,-31.9058 0,-15.6626 -6.477,-29.5855 -22.3331,-29.5855 -12.666,0 -22.5278,10.4419 -22.5278,30.4559 3e-4,21.4639 9.5714,31.0354 21.4632,31.0354 z"
         inkscape:connector-curvature="0" />
      <path
         style="fill:#961618"
         id="path3081"
         d="m 326,46 -12,0 0,12 -16,0 0,-46 5,0 0,-11 -23,0 0,11 6,0 0,46 -6,0 0,11 46,0 0,-23 z"
         inkscape:connector-curvature="0" />
      <path
         style="fill:#961618"
         id="path3083"
         d="M 273,21.45 273,1 l -46,0 0,11 6,0 0,46 -6,0 0,11 46,0 0,-23 -12,0 0,12 -16,0 0,-19 21.8311,0 0,-10.8088 -21.8311,0 0,-16.1912 16,0 0,9.45 12,0 z"
         inkscape:connector-curvature="0" />
      <path
         style="fill:#961618"
         id="path3085"
         d="m 208,39 0,19 -16,0 0,-46 16,0 0,9.7635 12,0 0,-13.0508 A 7.8822,7.8822 0 0 0 212.1585,1 l -24.413,0 A 7.7981,7.7981 0 0 0 180,8.7127 l 0,52.65 A 7.8534,7.8534 0 0 0 187.9055,69 L 220,69 l 0,-40.8088 -23,0 0,10.8088 11,0 z"
         inkscape:connector-curvature="0" />
      <path
         style="fill:#961618"
         id="path3087"
         d="M 173,21.45 173,1 l -45.7587,0 0,11 6.0318,0 0,46 -6.0318,0 0,11 45.7587,0 0,-23 -12,0 0,12 -16,0 0,-19 21.8261,0 0,-10.8088 -21.8261,0 0,-16.1912 16,0 0,9.45 12,0 z"
         inkscape:connector-curvature="0" />
      <path
         style="fill:#961618"
         id="path3089"
         d="m 122,12 0,-11 -24,0 0,11 6,0 0,46 -6,0 0,11 24,0 0,-11 -6,0 0,-46 6,0 z"
         inkscape:connector-curvature="0" />
      <path
         style="fill:#961618"
         id="path3091"
         d="m 85,1 -38,0 0,11 6.0247,0 0,46 -6.0247,0 0,11 24,0 0,-11 -5.92,0 0,-19 19.92,0 c 4.2815,0 8,-2.7662 8,-6.9406 L 93,8.7127 A 7.8209,7.8209 0 0 0 85.21,1 M 81,28.1912 l -15.92,0 L 65.08,12 81,12 81,28.1912 Z"
         inkscape:connector-curvature="0" />
      <path
         style="fill:#961618"
         id="path3093"
         d="M 13,28.1912 13,12 l 17,0 0,9.9518 12,0 0,-13.2391 A 7.8291,7.8291 0 0 0 34.2164,1 L 8.7516,1 A 7.8012,7.8012 0 0 0 1,8.7127 L 1,39 30,39 30,58 13,58 13,46 1,46 1,61.3628 A 7.7367,7.7367 0 0 0 8.7516,69 l 25.4968,0 A 7.7159,7.7159 0 0 0 42,61.3628 l 0,-33.1716 -29,0 z"
         inkscape:connector-curvature="0" />
    </g>
  </g>
</svg>
